<?xml version="1.0" encoding="utf-8"?>
<!-- Generator: Adobe Illustrator 24.2.1, SVG Export Plug-In . SVG Version: 6.00 Build 0)  -->
<svg version="1.1" id="Layer_1" xmlns="http://www.w3.org/2000/svg" xmlns:xlink="http://www.w3.org/1999/xlink" x="0px" y="0px"
	 viewBox="0 0 1800 630" style="enable-background:new 0 0 1800 630;" xml:space="preserve">
<style type="text/css">
	.st0{fill:#9596AE;}
	.st1{fill:url(#SVGID_1_);}
	.st2{fill:url(#SVGID_2_);}
	.st3{fill:#FFFFFF;}
	.st4{fill:none;stroke:#9596AE;stroke-width:5;stroke-linecap:round;stroke-miterlimit:10;}
</style>
<g id="Homebridge">
	<g id="Text">
		<path class="st0" d="M136.2,471.8h29v-31.1H178v75.9h-12.7v-33.8h-29v33.8h-12.8v-75.9h12.8v31.1H136.2z"/>
		<path class="st0" d="M222.8,517.6c-16.9,0-28.4-10.2-28.4-34.1v-9.7c0-23.9,11.4-34.1,28.4-34.1s28.5,10.2,28.5,34.1v9.7
			C251.3,507.3,239.9,517.6,222.8,517.6z M207.2,483.5c0,16.4,5.5,23,15.6,23s15.7-6.6,15.7-23v-9.7c0-16.4-5.6-23-15.7-23
			s-15.6,6.6-15.6,23V483.5z"/>
		<path class="st0" d="M301.7,484.7l21.9-44h12.2v75.9h-12.3v-50.8L306.1,502h-9L280,466.1v50.5h-12.3v-75.9h12.1L301.7,484.7z"/>
		<path class="st0" d="M401.8,440.7v11.1H368v20h30.5v11H368v22.8h33.8v11h-46.5v-75.9L401.8,440.7z"/>
		<path class="st0" d="M441,440.7c17.8,0,27,6.6,27,19.7c0.2,7.3-4.3,13.9-11.1,16.5c8.6,2.4,13.5,8.4,13.5,17.9
			c0,11.4-7.3,21.8-27,21.8h-26.8v-75.9L441,440.7L441,440.7z M429.3,471.7h12.4c9.5,0,13.4-4.3,13.4-10.6c0-5.9-3-9.5-15.1-9.5
			h-10.7L429.3,471.7z M429.3,505.6h13.3c10.2,0,15-4.2,15-11.4c0-8-5.3-11.4-16.5-11.4h-11.8V505.6z"/>
		<path class="st0" d="M527.7,516.6l-14.6-30.8h-14.7v30.8h-12.8v-75.9h25.9c17.5,0,27.9,7.6,27.9,22.7c0,10.5-5,17.2-13.8,20.4
			l16.2,32.9h-14.1V516.6z M510.6,474.8c10.8,0,16.1-2.9,16.1-11.4s-5.3-11.5-16.1-11.5h-12.2v23L510.6,474.8z"/>
		<path class="st0" d="M569.4,516.6h-12.8v-75.9h12.8V516.6z"/>
		<path class="st0" d="M589.9,516.6v-75.9h25.6c17,0,28.5,9.1,28.5,33.4v9c0,24.3-11.4,33.4-28.5,33.4L589.9,516.6z M631.2,483.1v-9
			c0-15.6-4.8-22.3-15.7-22.3h-12.9v53.8h12.9C626.4,505.6,631.2,498.8,631.2,483.1z"/>
		<path class="st0" d="M713.6,477.6v5.8c0,23.9-10.9,34.1-27.9,34.1s-28.4-10.2-28.4-34.1v-9.1c0-24.4,11.4-34.6,28.4-34.6
			c15.4,0,25.2,8.6,27.6,24.5H701c-1.9-8.8-6.7-13.4-15.3-13.4c-10.1,0-15.6,6.6-15.6,23v9.7c0,16.4,5.5,23,15.6,23
			c9.7,0,14.5-5.7,15.4-17.7H686v-11.1L713.6,477.6L713.6,477.6z"/>
		<path class="st0" d="M776.5,440.7v11.1h-33.8v20h30.5v11h-30.5v22.8h33.8v11H730v-75.9L776.5,440.7z"/>
	</g>
	<g id="Logo">
		
			<linearGradient id="SVGID_1_" gradientUnits="userSpaceOnUse" x1="450" y1="-343.5" x2="450" y2="-43.5" gradientTransform="matrix(1 0 0 1 0 430)">
			<stop  offset="0" style="stop-color:#57277C"/>
			<stop  offset="1" style="stop-color:#491F59"/>
		</linearGradient>
		<circle class="st1" cx="450" cy="236.5" r="150"/>
		
			<radialGradient id="SVGID_2_" cx="450" cy="-193.5" r="150" gradientTransform="matrix(1 0 0 1 0 430)" gradientUnits="userSpaceOnUse">
			<stop  offset="0" style="stop-color:#000000;stop-opacity:0"/>
			<stop  offset="1" style="stop-color:#000000;stop-opacity:0.1"/>
		</radialGradient>
		<circle class="st2" cx="450" cy="236.5" r="150"/>
		<path class="st3" d="M551.7,221.2h-0.2l-18.3-18.3c-0.6-0.7-1-1.6-1-2.5v-42.3c0-9-7.3-16.2-16.2-16.2h-11.5
			c-9,0-16.2,7.3-16.2,16.2v0.2l-27.1-26.2c-6.4-6.1-16.5-6-22.8,0.2L346.8,224c-6.3,6.3-6.3,16.6,0,22.9l0,0l0,0l8.7,8.7
			c6.3,6.3,16.5,6.3,22.9,0.1l70.5-69.4c1.4-1.4,3.6-1.4,5,0l69,69c1.4,1.4,1.4,3.6,0,5l-8.5,8.5c-1.4,1.4-3.6,1.4-5,0l-48.5-47
			c-6.4-6.2-16.5-6.1-22.8,0.2l-46.5,46.7c-6.3,6.3-6.3,16.6,0,22.9l8.6,8.6c6.3,6.3,16.5,6.3,22.9,0.1l25.1-24.8
			c1.4-1.4,3.6-1.4,5,0L478,300c1.4,1.4,1.4,3.6,0,5l0,0l-24.7,24.9c-0.1,0-0.2-0.1-0.3-0.1c-5.1,0-9.3,4.1-9.3,9.3
			c0,5.1,4.1,9.3,9.3,9.3c5.1,0,9.3-4.1,9.3-9.3v-0.2l24.8-24.8c6.4-6.3,6.4-16.6,0-23l0,0L487,291l-24.9-24.5
			c-6.3-6.2-16.5-6.2-22.8,0l-25.1,24.8c-1.4,1.4-3.6,1.4-5,0l-8.6-8.6c-1.4-1.4-1.4-3.6,0-5l46.5-46.7c1.4-1.4,3.6-1.4,5-0.1
			l48.5,47.1c6.4,6.1,16.5,6.1,22.8-0.2l8.5-8.5c6.3-6.3,6.3-16.6,0-22.9l-69.1-69.1c-6.3-6.3-16.5-6.3-22.9-0.1l-70.5,69.4
			c-1.4,1.4-3.6,1.4-5,0l-8.7-8.7c-1.4-1.4-1.4-3.6,0-5l91.7-91.7c1.4-1.4,3.6-1.4,5,0l48.6,47V158c0-2,1.6-3.5,3.5-3.5H516
			c2,0,3.5,1.6,3.5,3.5v42.4c0,4.3,1.7,8.5,4.8,11.5l18.2,18.2c0,0.1-0.1,0.2-0.1,0.3c0,5.1,4.2,9.3,9.3,9.2c5.1,0,9.3-4.2,9.2-9.3
			C561,225.4,556.8,221.3,551.7,221.2L551.7,221.2z"/>
	</g>
</g>
<g id="Divider">
	<line class="st4" x1="998" y1="14.2" x2="902" y2="614.2"/>
</g>
<image style="overflow:visible;" width="512" height="512" xlink:href="../../Downloads/unnamed.png"  transform="matrix(0.75 0 0 0.75 1200.7999 122.2)">
</image>
</svg>
