<?xml version="1.0" encoding="utf-8"?>
<!-- Generator: Adobe Illustrator 24.2.1, SVG Export Plug-In . SVG Version: 6.00 Build 0)  -->
<svg version="1.1" id="Layer_1" xmlns="http://www.w3.org/2000/svg" xmlns:xlink="http://www.w3.org/1999/xlink" x="0px" y="0px"
	 viewBox="0 0 1800 630" style="enable-background:new 0 0 1800 630;" xml:space="preserve">
<style type="text/css">
	.st0{fill:#9596AE;}
	.st1{fill:url(#SVGID_1_);}
	.st2{fill:url(#SVGID_2_);}
	.st3{fill:#FFFFFF;}
	.st4{fill:none;stroke:#9596AE;stroke-width:5;stroke-linecap:round;stroke-miterlimit:10;}
	.st5{fill:#124E84;}
</style>
<g id="Homebridge">
	<g id="Text">
		<path class="st0" d="M136.2,471.8h29v-31.1H178v75.9h-12.7v-33.8h-29v33.8h-12.8v-75.9h12.8v31.1H136.2z"/>
		<path class="st0" d="M222.8,517.6c-16.9,0-28.4-10.2-28.4-34.1v-9.7c0-23.9,11.4-34.1,28.4-34.1s28.5,10.2,28.5,34.1v9.7
			C251.3,507.3,239.9,517.6,222.8,517.6z M207.2,483.5c0,16.4,5.5,23,15.6,23s15.7-6.6,15.7-23v-9.7c0-16.4-5.6-23-15.7-23
			s-15.6,6.6-15.6,23V483.5z"/>
		<path class="st0" d="M301.7,484.7l21.9-44h12.2v75.9h-12.3v-50.8L306.1,502h-9L280,466.1v50.5h-12.3v-75.9h12.1L301.7,484.7z"/>
		<path class="st0" d="M401.8,440.7v11.1H368v20h30.5v11H368v22.8h33.8v11h-46.5v-75.9L401.8,440.7z"/>
		<path class="st0" d="M441,440.7c17.8,0,27,6.6,27,19.7c0.2,7.3-4.3,13.9-11.1,16.5c8.6,2.4,13.5,8.4,13.5,17.9
			c0,11.4-7.3,21.8-27,21.8h-26.8v-75.9L441,440.7L441,440.7z M429.3,471.7h12.4c9.5,0,13.4-4.3,13.4-10.6c0-5.9-3-9.5-15.1-9.5
			h-10.7L429.3,471.7z M429.3,505.6h13.3c10.2,0,15-4.2,15-11.4c0-8-5.3-11.4-16.5-11.4h-11.8V505.6z"/>
		<path class="st0" d="M527.7,516.6l-14.6-30.8h-14.7v30.8h-12.8v-75.9h25.9c17.5,0,27.9,7.6,27.9,22.7c0,10.5-5,17.2-13.8,20.4
			l16.2,32.9h-14.1L527.7,516.6L527.7,516.6z M510.6,474.8c10.8,0,16.1-2.9,16.1-11.4s-5.3-11.5-16.1-11.5h-12.2v23L510.6,474.8z"/>
		<path class="st0" d="M569.4,516.6h-12.8v-75.9h12.8V516.6z"/>
		<path class="st0" d="M589.9,516.6v-75.9h25.6c17,0,28.5,9.1,28.5,33.4v9c0,24.3-11.4,33.4-28.5,33.4L589.9,516.6z M631.2,483.1v-9
			c0-15.6-4.8-22.3-15.7-22.3h-12.9v53.8h12.9C626.4,505.6,631.2,498.8,631.2,483.1z"/>
		<path class="st0" d="M713.6,477.6v5.8c0,23.9-10.9,34.1-27.9,34.1s-28.4-10.2-28.4-34.1v-9.1c0-24.4,11.4-34.6,28.4-34.6
			c15.4,0,25.2,8.6,27.6,24.5H701c-1.9-8.8-6.7-13.4-15.3-13.4c-10.1,0-15.6,6.6-15.6,23v9.7c0,16.4,5.5,23,15.6,23
			c9.7,0,14.5-5.7,15.4-17.7H686v-11.1L713.6,477.6L713.6,477.6z"/>
		<path class="st0" d="M776.5,440.7v11.1h-33.8v20h30.5v11h-30.5v22.8h33.8v11H730v-75.9L776.5,440.7z"/>
	</g>
	<g id="Logo">
		
			<linearGradient id="SVGID_1_" gradientUnits="userSpaceOnUse" x1="450" y1="973.5" x2="450" y2="673.5" gradientTransform="matrix(1 0 0 -1 0 1060)">
			<stop  offset="0" style="stop-color:#57277C"/>
			<stop  offset="1" style="stop-color:#491F59"/>
		</linearGradient>
		<circle class="st1" cx="450" cy="236.5" r="150"/>
		
			<radialGradient id="SVGID_2_" cx="450" cy="823.5" r="150" gradientTransform="matrix(1 0 0 -1 0 1060)" gradientUnits="userSpaceOnUse">
			<stop  offset="0" style="stop-color:#000000;stop-opacity:0"/>
			<stop  offset="1" style="stop-color:#000000;stop-opacity:0.1"/>
		</radialGradient>
		<circle class="st2" cx="450" cy="236.5" r="150"/>
		<path class="st3" d="M551.7,221.2h-0.2l-18.3-18.3c-0.6-0.7-1-1.6-1-2.5v-42.3c0-9-7.3-16.2-16.2-16.2h-11.5
			c-9,0-16.2,7.3-16.2,16.2v0.2l-27.1-26.2c-6.4-6.1-16.5-6-22.8,0.2L346.8,224c-6.3,6.3-6.3,16.6,0,22.9l0,0l0,0l8.7,8.7
			c6.3,6.3,16.5,6.3,22.9,0.1l70.5-69.4c1.4-1.4,3.6-1.4,5,0l69,69c1.4,1.4,1.4,3.6,0,5l-8.5,8.5c-1.4,1.4-3.6,1.4-5,0l-48.5-47
			c-6.4-6.2-16.5-6.1-22.8,0.2l-46.5,46.7c-6.3,6.3-6.3,16.6,0,22.9l8.6,8.6c6.3,6.3,16.5,6.3,22.9,0.1l25.1-24.8
			c1.4-1.4,3.6-1.4,5,0L478,300c1.4,1.4,1.4,3.6,0,5l0,0l-24.7,24.9c-0.1,0-0.2-0.1-0.3-0.1c-5.1,0-9.3,4.1-9.3,9.3
			c0,5.1,4.1,9.3,9.3,9.3c5.1,0,9.3-4.1,9.3-9.3v-0.2l24.8-24.8c6.4-6.3,6.4-16.6,0-23l0,0L487,291l-24.9-24.5
			c-6.3-6.2-16.5-6.2-22.8,0l-25.1,24.8c-1.4,1.4-3.6,1.4-5,0l-8.6-8.6c-1.4-1.4-1.4-3.6,0-5l46.5-46.7c1.4-1.4,3.6-1.4,5-0.1
			l48.5,47.1c6.4,6.1,16.5,6.1,22.8-0.2l8.5-8.5c6.3-6.3,6.3-16.6,0-22.9l-69.1-69.1c-6.3-6.3-16.5-6.3-22.9-0.1l-70.5,69.4
			c-1.4,1.4-3.6,1.4-5,0l-8.7-8.7c-1.4-1.4-1.4-3.6,0-5l91.7-91.7c1.4-1.4,3.6-1.4,5,0l48.6,47V158c0-2,1.6-3.5,3.5-3.5H516
			c2,0,3.5,1.6,3.5,3.5v42.4c0,4.3,1.7,8.5,4.8,11.5l18.2,18.2c0,0.1-0.1,0.2-0.1,0.3c0,5.1,4.2,9.3,9.3,9.2c5.1,0,9.3-4.2,9.2-9.3
			C561,225.4,556.8,221.3,551.7,221.2L551.7,221.2z"/>
	</g>
</g>
<g id="Divider">
	<line class="st4" x1="998" y1="14.2" x2="902" y2="614.2"/>
</g>
<g>
	<g transform="translate(0.000000,512.000000) scale(0.100000,-0.100000)">
		<path class="st5" d="M13801.6,3888.2c-195.3-19.6-325.7-45.2-471.2-92.7c-361.9-119.9-670.2-332.5-902.5-624.3
			c-220.9-277.4-354.3-588.1-406.4-948.5c-18.1-124.4-18.1-380.7,0-505.1c35.4-247.3,115.4-485.5,227.7-684.6l43.7-76.9l9,56.5
			c42.2,266.9,188.5,494.6,413.9,643.1c84.4,55,117.6,72.4,203.6,104c58.1,21.1,78.4,24.9,139.5,24.9c84.4,0.8,113.8-12.1,141-60.3
			c36.9-64.1,19.6-101-73.1-153.8c-144.8-82.9-268.4-198.3-329.5-307.6c-67.1-120.6-85.2-257.1-48.3-370.9
			c95.8-290.3,435-377,798.4-203.6c88.2,42.2,200.5,113.8,272.9,174.2c173.4,144,427.5,416.2,625.8,670.2
			c125.2,161.3,280.5,377.7,276.7,387.5c-5.3,13.6-122.1,0.8-202.8-21.9c-87.5-24.9-148.5-52.8-234.5-108.6
			c-54.3-35.4-76.9-46-98.8-46c-58.1,0-94.2,40-85.2,94.2c6,38.5,29.4,66.3,82.9,100.3c154.6,97.3,311.4,149.3,597.1,197.5
			c92.7,15.8,148.5,28.6,157.6,36.9c7.5,6.8,64.8,81.4,127.4,166.6c193.8,263.1,291,374,464.4,529.3l62.6,56.5l-39.2,63.3
			c-70.1,110.8-189.2,263.1-265.4,336.3c-30.9,30.9-35.4,32.4-100.3,40c-108.6,12.8-374.7,18.1-478.7,8.3
			c-458.4-40-784.8-198.3-937.1-454.6c-41.5-68.6-61.1-140.2-61.8-217.1c0-109.3,38.5-182.5,119.9-223.9
			c50.5-26.4,157.6-33.2,231.5-14.3c159.1,40.7,345.3,177.2,476.5,350.6c33.9,45.2,61.8,74.6,75.4,79.2
			c30.2,10.6,59.6-2.3,75.4-33.2c23.4-44.5,13.6-91.2-42.2-205.8c-170.4-349.8-429-576.8-731.3-643.1c-31.7-6.8-90.5-12.1-141-12.1
			c-213.4-0.8-380.7,96.5-470.5,272.9c-92,179.4-84.4,412.4,18.8,620.5c212.6,426.7,819.5,720.8,1490.5,721.5
			c58.1,0,91.2,3,88.2,7.5c-7.5,12.1-123.6,72.4-214.9,111.6c-161.3,69.4-324.9,114.6-508.2,141.7
			C14104.7,3885.2,13860.4,3894.3,13801.6,3888.2z"/>
		<path class="st5" d="M15641.2,2609.5c-84.4-88.2-169.6-195.3-232.2-290.3c-52-79.2-68.6-107.8-64.1-111.6
			c1.5-1.5,92,2.3,202.1,8.3c110.1,5.3,216.4,9.8,236,10.6c26.4,0,36.9,3,40.7,12.1c11.3,29.4-79.2,385.3-109.3,431.3
			C15709.8,2676.6,15689.5,2660.1,15641.2,2609.5z"/>
		<path class="st5" d="M15682.7,2052.4c-221.7-19.6-437.3-43.7-465.2-52.8c-20.4-6.8-35.4-26.4-104.8-141
			c-458.4-755.4-695.9-1084.2-983.9-1361.6c-98-94.2-220.1-191.5-316.7-251.8c-64.1-40.7-192.3-101-261.6-124.4
			c-30.9-10.6-52.8-20.4-49-22.6c3.8-2.3,46.7-11.3,95-19.6c604.7-105.6,1217.6,82.9,1666.2,511.2
			c296.3,282.7,501.4,684.6,563.9,1104.5c15.8,109.3,27.9,361.9,17.3,367.9C15840.3,2063.7,15767.9,2059.2,15682.7,2052.4z"/>
	</g>
</g>
</svg>
